<svg viewBox="0 0 70 60" xmlns="http://www.w3.org/2000/svg">
    <g id="Logo" fill="none" fill-rule="evenodd">
        <g id="Logo-Header-Beta-Abbr">
            <g id="BODY">
                <path d="M35.463 35.037c1.177 1.66 2.93 2.24 4.417 2.24 3.716 0 5.016-2.2 5.016-4.855V23.5h-8.298v2.552h5.264v6.12c0 1.87-.702 2.47-2.085 2.47-.887 0-1.775-.518-2.56-1.493l-1.754 1.886zm11.295.177c1.42 1.263 3.243 1.916 5.027 1.916 3.283 0 5.128-1.916 5.128-4.117 0-1.875-1.095-2.956-2.838-3.608l-1.6-.693c-1.278-.47-2.17-.754-2.17-1.57 0-.753.67-1.202 1.824-1.202 1.133 0 1.964.388 2.876 1.06l1.52-1.895c-1.195-1.142-2.796-1.753-4.398-1.753-2.86 0-4.845 1.753-4.845 3.954 0 1.936 1.338 3.077 2.817 3.628l1.703.733c1.277.49 2.047.755 2.047 1.59 0 .795-.608 1.284-1.986 1.284-1.156 0-2.392-.57-3.385-1.384l-1.723 2.06z" fill="#333"/>
                <g fill="#BE1622">
                    <path d="M20.487 33.932l.714 1.446 5.395-2.662-.713-1.446-5.393 2.662zM21.67 30.1l3.746 1.85.714-1.446-3.746-1.85-.714 1.447z"/>
                    <path d="M20.126 35.49l7.486 2.18.45-1.546-7.484-2.183-.452 1.55z"/>
                </g>
                <path d="M23.968 18.694c-1.73 0-3.13 1.402-3.13 3.13 0 1.73 1.4 3.13 3.13 3.13 1.728 0 3.13-1.4 3.13-3.13 0-1.728-1.402-3.13-3.13-3.13zm0 4.113c-.543 0-.983-.44-.983-.983 0-.543.44-.982.983-.982.543 0 .982.44.982.982 0 .543-.44.983-.982.983z" fill="#BE1622"/>
                <path d="M25.87 24.393c-.19-.593-.864-1.073-1.5-1.073h-.743c-.637 0-1.307.483-1.497 1.073l-4.68 14.625c-.19.594.168 1.074.814 1.074h.923c.318 0 .648-.24.737-.545l2.394-8.186c.574-1.944.965-3.583 1.59-5.504h.105c.598 1.92.99 3.56 1.563 5.506l2.42 8.187c.088.3.416.544.733.544h1.033c.638 0 1-.483.81-1.074l-4.705-14.625z" fill="#BE1622"/>
            </g>
        </g>
    </g>
</svg>
